<svg width="17" height="19" viewBox="0 0 17 19" fill="none" xmlns="http://www.w3.org/2000/svg">
<path d="M3.7315 11.9847C2.55252 12.6867 -0.53868 14.1201 1.34407 15.9138C2.26377 16.79 3.28809 17.4167 4.57591 17.4167H11.9245C13.2123 17.4167 14.2366 16.79 15.1563 15.9138C17.039 14.1201 13.9478 12.6867 12.7689 11.9847C10.0042 10.3384 6.49617 10.3384 3.7315 11.9847Z" stroke="white" stroke-width="1.5" stroke-linecap="round" stroke-linejoin="round"/>
<path d="M12.0002 4.5C12.0002 6.57107 10.3213 8.25 8.25018 8.25C6.17912 8.25 4.50018 6.57107 4.50018 4.5C4.50018 2.42893 6.17912 0.75 8.25018 0.75C10.3213 0.75 12.0002 2.42893 12.0002 4.5Z" stroke="white" stroke-width="1.5"/>
</svg>
