<svg width="16" height="13" viewBox="0 0 16 13" fill="none" xmlns="http://www.w3.org/2000/svg">
<path d="M8.7098 8.47979C9.08989 8.68532 9.6861 9.00773 10.094 9.39075C10.3479 9.62924 10.6106 9.96212 10.6588 10.3854C10.711 10.8435 10.499 11.2571 10.1181 11.6052C9.47882 12.1896 8.70148 12.6667 7.69323 12.6667H2.97343C1.96519 12.6667 1.18785 12.1896 0.548532 11.6052C0.167654 11.2571 -0.0443615 10.8435 0.00782568 10.3854C0.0560552 9.96212 0.318754 9.62924 0.572706 9.39075C0.980565 9.00773 1.57674 8.68535 1.95682 8.47982C2.04144 8.43406 2.11536 8.39409 2.1741 8.36053C4.10893 7.2552 6.55774 7.2552 8.49257 8.36053C8.5513 8.39408 8.6252 8.43404 8.7098 8.47979Z" fill="white"/>
<path d="M2.06445 3.25225C2.06445 1.45608 3.52791 0 5.33318 0C7.13845 0 8.60191 1.45608 8.60191 3.25225C8.60191 5.04842 7.13845 6.5045 5.33318 6.5045C3.52791 6.5045 2.06445 5.04842 2.06445 3.25225Z" fill="white"/>
<path d="M8.85178 5.64376C8.71467 5.82718 8.64612 5.9189 8.67212 6.00967C8.69811 6.10045 8.78944 6.14193 8.97208 6.2249C9.35216 6.39755 9.78082 6.49466 10.2344 6.49466C11.7988 6.49466 13.067 5.33927 13.067 3.91402C13.067 2.48877 11.7988 1.33337 10.2344 1.33337C10.0638 1.33337 9.8967 1.34711 9.7344 1.37345C9.53343 1.40605 9.43295 1.42235 9.37989 1.50286C9.32682 1.58336 9.36437 1.68909 9.43947 1.90054C9.58774 2.318 9.66785 2.7634 9.66785 3.22585C9.66785 4.12232 9.3668 4.95473 8.85178 5.64376Z" fill="white"/>
<path d="M12.262 12C13.2833 12 14.0776 11.6026 14.7382 11.1065C15.1296 10.8124 15.3861 10.4338 15.3241 9.98708C15.2685 9.5859 14.9709 9.2873 14.7141 9.08914C14.2934 8.76445 13.6796 8.49182 13.2928 8.32003C13.2074 8.28209 13.1331 8.24907 13.0743 8.22149C12.3207 7.8677 11.4916 7.64907 10.6446 7.56559C10.0984 7.51175 9.82532 7.48484 9.76292 7.63343C9.70052 7.78202 9.9437 7.94121 10.4301 8.2596C10.6148 8.38052 10.7935 8.51005 10.9503 8.64493C11.3033 8.94847 11.8209 9.49482 11.9185 10.2791C11.9637 10.6426 11.9113 10.9775 11.7936 11.28C11.6533 11.6403 11.5832 11.8204 11.6438 11.9058C11.6477 11.9112 11.6501 11.9143 11.6544 11.9194C11.7225 12 11.9023 12 12.262 12Z" fill="white"/>
</svg>
